<mxfile host="Electron" modified="2024-12-25T23:04:54.238Z" agent="Mozilla/5.0 (Windows NT 10.0; Win64; x64) AppleWebKit/537.36 (KHTML, like Gecko) draw.io/24.1.0 Chrome/120.0.6099.109 Electron/28.1.0 Safari/537.36" etag="BiCZLJxgW-0OD8X7-yQ0" version="24.1.0" type="device">
  <diagram name="Página-1" id="HnM5bIwWVijFqjH4xQIT">
    <mxGraphModel dx="3694" dy="2567" grid="1" gridSize="10" guides="1" tooltips="1" connect="1" arrows="1" fold="1" page="1" pageScale="1" pageWidth="827" pageHeight="1169" math="0" shadow="0">
      <root>
        <mxCell id="0" />
        <mxCell id="1" parent="0" />
        <mxCell id="pXgBq8F15Pb4AACvGtiO-1" value="&amp;lt;&amp;lt;component&amp;gt;&amp;gt;&lt;div&gt;&amp;lt;&amp;lt;C4 System&amp;gt;&amp;gt;&lt;br&gt;&lt;b&gt;Hospital de Paranhos&lt;/b&gt;&lt;/div&gt;&lt;div&gt;&lt;b&gt;&lt;br&gt;&lt;/b&gt;&lt;/div&gt;&lt;div&gt;&lt;b&gt;&lt;br&gt;&lt;/b&gt;&lt;/div&gt;&lt;div&gt;&lt;b&gt;&lt;br&gt;&lt;/b&gt;&lt;/div&gt;&lt;div&gt;&lt;b&gt;&lt;br&gt;&lt;/b&gt;&lt;/div&gt;&lt;div&gt;&lt;b&gt;&lt;br&gt;&lt;/b&gt;&lt;/div&gt;&lt;div&gt;&lt;b&gt;&lt;br&gt;&lt;/b&gt;&lt;/div&gt;&lt;div&gt;&lt;b&gt;&lt;br&gt;&lt;/b&gt;&lt;/div&gt;&lt;div&gt;&lt;b&gt;&lt;br&gt;&lt;/b&gt;&lt;/div&gt;&lt;div&gt;&lt;b&gt;&lt;br&gt;&lt;/b&gt;&lt;/div&gt;&lt;div&gt;&lt;b&gt;&lt;br&gt;&lt;/b&gt;&lt;/div&gt;&lt;div&gt;&lt;b&gt;&lt;br&gt;&lt;/b&gt;&lt;/div&gt;&lt;div&gt;&lt;b&gt;&lt;br&gt;&lt;/b&gt;&lt;/div&gt;&lt;div&gt;&lt;b&gt;&lt;br&gt;&lt;/b&gt;&lt;/div&gt;&lt;div&gt;&lt;b&gt;&lt;br&gt;&lt;/b&gt;&lt;/div&gt;&lt;div&gt;&lt;b&gt;&lt;br&gt;&lt;/b&gt;&lt;/div&gt;&lt;div&gt;&lt;b&gt;&lt;br&gt;&lt;/b&gt;&lt;/div&gt;&lt;div&gt;&lt;b&gt;&lt;br&gt;&lt;/b&gt;&lt;/div&gt;&lt;div&gt;&lt;b&gt;&lt;br&gt;&lt;/b&gt;&lt;/div&gt;&lt;div&gt;&lt;b&gt;&lt;br&gt;&lt;/b&gt;&lt;/div&gt;&lt;div&gt;&lt;b&gt;&lt;br&gt;&lt;/b&gt;&lt;/div&gt;&lt;div&gt;&lt;b&gt;&lt;br&gt;&lt;/b&gt;&lt;/div&gt;&lt;div&gt;&lt;b&gt;&lt;br&gt;&lt;/b&gt;&lt;/div&gt;&lt;div&gt;&lt;b&gt;&lt;br&gt;&lt;/b&gt;&lt;/div&gt;&lt;div&gt;&lt;b&gt;&lt;br&gt;&lt;/b&gt;&lt;/div&gt;&lt;div&gt;&lt;b&gt;&lt;br&gt;&lt;/b&gt;&lt;/div&gt;&lt;div&gt;&lt;b&gt;&lt;br&gt;&lt;/b&gt;&lt;/div&gt;&lt;div&gt;&lt;b&gt;&lt;br&gt;&lt;/b&gt;&lt;/div&gt;&lt;div&gt;&lt;b&gt;&lt;br&gt;&lt;/b&gt;&lt;/div&gt;&lt;div&gt;&lt;b&gt;&lt;br&gt;&lt;/b&gt;&lt;/div&gt;&lt;div&gt;&lt;b&gt;&lt;br&gt;&lt;/b&gt;&lt;/div&gt;&lt;div&gt;&lt;br&gt;&lt;/div&gt;&lt;div&gt;&lt;br&gt;&lt;/div&gt;&lt;div&gt;&lt;br&gt;&lt;/div&gt;&lt;div&gt;&lt;br&gt;&lt;/div&gt;&lt;div&gt;&lt;br&gt;&lt;/div&gt;&lt;div&gt;&lt;br&gt;&lt;/div&gt;&lt;div&gt;&lt;br&gt;&lt;/div&gt;&lt;div&gt;&lt;br&gt;&lt;/div&gt;&lt;div&gt;&lt;br&gt;&lt;/div&gt;" style="html=1;dropTarget=0;whiteSpace=wrap;" vertex="1" parent="1">
          <mxGeometry x="-610" y="260" width="930" height="670" as="geometry" />
        </mxCell>
        <mxCell id="pXgBq8F15Pb4AACvGtiO-2" value="" style="shape=module;jettyWidth=8;jettyHeight=4;" vertex="1" parent="pXgBq8F15Pb4AACvGtiO-1">
          <mxGeometry x="1" width="20" height="20" relative="1" as="geometry">
            <mxPoint x="-27" y="7" as="offset" />
          </mxGeometry>
        </mxCell>
        <mxCell id="pXgBq8F15Pb4AACvGtiO-3" value="" style="verticalLabelPosition=bottom;verticalAlign=top;html=1;shape=mxgraph.basic.rect;fillColor2=none;strokeWidth=1;size=9.4;indent=5;" vertex="1" parent="1">
          <mxGeometry x="-190" y="250" width="20" height="20" as="geometry" />
        </mxCell>
        <mxCell id="pXgBq8F15Pb4AACvGtiO-4" value="" style="endArrow=none;html=1;rounded=0;exitX=0.488;exitY=0.015;exitDx=0;exitDy=0;exitPerimeter=0;entryX=0.488;entryY=1.026;entryDx=0;entryDy=0;entryPerimeter=0;" edge="1" parent="1" source="pXgBq8F15Pb4AACvGtiO-23" target="pXgBq8F15Pb4AACvGtiO-3">
          <mxGeometry width="50" height="50" relative="1" as="geometry">
            <mxPoint x="-120" y="400" as="sourcePoint" />
            <mxPoint x="-70" y="350" as="targetPoint" />
          </mxGeometry>
        </mxCell>
        <mxCell id="pXgBq8F15Pb4AACvGtiO-5" value="" style="ellipse;whiteSpace=wrap;html=1;align=center;aspect=fixed;fillColor=none;strokeColor=none;resizable=0;perimeter=centerPerimeter;rotatable=0;allowArrows=0;points=[];outlineConnect=1;" vertex="1" parent="1">
          <mxGeometry x="-160" y="420" width="10" height="10" as="geometry" />
        </mxCell>
        <mxCell id="pXgBq8F15Pb4AACvGtiO-6" value="" style="ellipse;whiteSpace=wrap;html=1;aspect=fixed;" vertex="1" parent="1">
          <mxGeometry x="-195" y="200" width="30" height="30" as="geometry" />
        </mxCell>
        <mxCell id="pXgBq8F15Pb4AACvGtiO-7" value="" style="endArrow=none;html=1;rounded=0;entryX=0.5;entryY=1;entryDx=0;entryDy=0;exitX=0.55;exitY=0.011;exitDx=0;exitDy=0;exitPerimeter=0;" edge="1" parent="1" source="pXgBq8F15Pb4AACvGtiO-3" target="pXgBq8F15Pb4AACvGtiO-6">
          <mxGeometry width="50" height="50" relative="1" as="geometry">
            <mxPoint x="-210" y="310" as="sourcePoint" />
            <mxPoint x="-160" y="260" as="targetPoint" />
          </mxGeometry>
        </mxCell>
        <mxCell id="pXgBq8F15Pb4AACvGtiO-8" value="UI" style="edgeLabel;html=1;align=center;verticalAlign=middle;resizable=0;points=[];" vertex="1" connectable="0" parent="pXgBq8F15Pb4AACvGtiO-7">
          <mxGeometry x="0.7303" y="1" relative="1" as="geometry">
            <mxPoint x="-9" y="4" as="offset" />
          </mxGeometry>
        </mxCell>
        <mxCell id="pXgBq8F15Pb4AACvGtiO-9" value="«component»&lt;div&gt;«container (C4)»&lt;br&gt;&lt;b&gt;Planning/Optimization&lt;/b&gt;&lt;/div&gt;" style="html=1;dropTarget=0;whiteSpace=wrap;" vertex="1" parent="1">
          <mxGeometry x="70" y="370" width="180" height="90" as="geometry" />
        </mxCell>
        <mxCell id="pXgBq8F15Pb4AACvGtiO-10" value="" style="shape=module;jettyWidth=8;jettyHeight=4;" vertex="1" parent="pXgBq8F15Pb4AACvGtiO-9">
          <mxGeometry x="1" width="20" height="20" relative="1" as="geometry">
            <mxPoint x="-27" y="7" as="offset" />
          </mxGeometry>
        </mxCell>
        <mxCell id="pXgBq8F15Pb4AACvGtiO-11" value="«component»&lt;div&gt;«container (C4)»&lt;br&gt;&lt;b&gt;Frontend&lt;/b&gt;&lt;/div&gt;" style="html=1;dropTarget=0;whiteSpace=wrap;" vertex="1" parent="1">
          <mxGeometry x="-250" y="350" width="180" height="90" as="geometry" />
        </mxCell>
        <mxCell id="pXgBq8F15Pb4AACvGtiO-12" value="" style="shape=module;jettyWidth=8;jettyHeight=4;" vertex="1" parent="pXgBq8F15Pb4AACvGtiO-11">
          <mxGeometry x="1" width="20" height="20" relative="1" as="geometry">
            <mxPoint x="-27" y="7" as="offset" />
          </mxGeometry>
        </mxCell>
        <mxCell id="pXgBq8F15Pb4AACvGtiO-13" value="" style="rounded=0;orthogonalLoop=1;jettySize=auto;html=1;endArrow=halfCircle;endFill=0;endSize=6;strokeWidth=1;sketch=0;exitX=1;exitY=0.5;exitDx=0;exitDy=0;" edge="1" parent="1" source="pXgBq8F15Pb4AACvGtiO-17">
          <mxGeometry relative="1" as="geometry">
            <mxPoint x="-70" y="414.83" as="sourcePoint" />
            <mxPoint y="390" as="targetPoint" />
          </mxGeometry>
        </mxCell>
        <mxCell id="pXgBq8F15Pb4AACvGtiO-14" value="" style="rounded=0;orthogonalLoop=1;jettySize=auto;html=1;endArrow=oval;endFill=0;sketch=0;sourcePerimeterSpacing=0;targetPerimeterSpacing=0;endSize=10;exitX=0;exitY=0.5;exitDx=0;exitDy=0;" edge="1" parent="1" source="pXgBq8F15Pb4AACvGtiO-18">
          <mxGeometry relative="1" as="geometry">
            <mxPoint x="70" y="414.83" as="sourcePoint" />
            <mxPoint y="390" as="targetPoint" />
          </mxGeometry>
        </mxCell>
        <mxCell id="pXgBq8F15Pb4AACvGtiO-15" value="&lt;b&gt;Planning API&lt;/b&gt;" style="edgeLabel;html=1;align=center;verticalAlign=middle;resizable=0;points=[];" vertex="1" connectable="0" parent="pXgBq8F15Pb4AACvGtiO-14">
          <mxGeometry x="0.7483" relative="1" as="geometry">
            <mxPoint y="15" as="offset" />
          </mxGeometry>
        </mxCell>
        <mxCell id="pXgBq8F15Pb4AACvGtiO-16" value="" style="ellipse;whiteSpace=wrap;html=1;align=center;aspect=fixed;fillColor=none;strokeColor=none;resizable=0;perimeter=centerPerimeter;rotatable=0;allowArrows=0;points=[];outlineConnect=1;" vertex="1" parent="1">
          <mxGeometry x="15" y="450" width="10" height="10" as="geometry" />
        </mxCell>
        <mxCell id="pXgBq8F15Pb4AACvGtiO-17" value="" style="rounded=0;whiteSpace=wrap;html=1;" vertex="1" parent="1">
          <mxGeometry x="-80" y="380" width="20" height="20" as="geometry" />
        </mxCell>
        <mxCell id="pXgBq8F15Pb4AACvGtiO-18" value="" style="rounded=0;whiteSpace=wrap;html=1;" vertex="1" parent="1">
          <mxGeometry x="60" y="380" width="20" height="20" as="geometry" />
        </mxCell>
        <mxCell id="pXgBq8F15Pb4AACvGtiO-19" value="" style="rounded=0;orthogonalLoop=1;jettySize=auto;html=1;endArrow=halfCircle;endFill=0;endSize=6;strokeWidth=1;sketch=0;exitX=1;exitY=0.5;exitDx=0;exitDy=0;" edge="1" parent="1" source="pXgBq8F15Pb4AACvGtiO-34">
          <mxGeometry relative="1" as="geometry">
            <mxPoint x="-40" y="610" as="sourcePoint" />
            <mxPoint x="-10" y="560" as="targetPoint" />
            <Array as="points">
              <mxPoint x="-10" y="765" />
              <mxPoint x="-10" y="580" />
            </Array>
          </mxGeometry>
        </mxCell>
        <mxCell id="pXgBq8F15Pb4AACvGtiO-20" value="" style="rounded=0;orthogonalLoop=1;jettySize=auto;html=1;endArrow=oval;endFill=0;sketch=0;sourcePerimeterSpacing=0;targetPerimeterSpacing=0;endSize=10;exitX=1;exitY=0.5;exitDx=0;exitDy=0;" edge="1" parent="1" source="pXgBq8F15Pb4AACvGtiO-37">
          <mxGeometry relative="1" as="geometry">
            <mxPoint x="70" y="554.8299999999999" as="sourcePoint" />
            <mxPoint x="-10" y="555" as="targetPoint" />
            <Array as="points">
              <mxPoint x="-50" y="530" />
              <mxPoint x="-50" y="555" />
            </Array>
          </mxGeometry>
        </mxCell>
        <mxCell id="pXgBq8F15Pb4AACvGtiO-21" value="&lt;b&gt;Backend API&lt;/b&gt;" style="edgeLabel;html=1;align=center;verticalAlign=middle;resizable=0;points=[];" vertex="1" connectable="0" parent="pXgBq8F15Pb4AACvGtiO-20">
          <mxGeometry x="0.7483" relative="1" as="geometry">
            <mxPoint x="66" y="-25" as="offset" />
          </mxGeometry>
        </mxCell>
        <mxCell id="pXgBq8F15Pb4AACvGtiO-22" value="" style="ellipse;whiteSpace=wrap;html=1;align=center;aspect=fixed;fillColor=none;strokeColor=none;resizable=0;perimeter=centerPerimeter;rotatable=0;allowArrows=0;points=[];outlineConnect=1;" vertex="1" parent="1">
          <mxGeometry x="40" y="560" width="10" height="10" as="geometry" />
        </mxCell>
        <mxCell id="pXgBq8F15Pb4AACvGtiO-23" value="" style="verticalLabelPosition=bottom;verticalAlign=top;html=1;shape=mxgraph.basic.rect;fillColor2=none;strokeWidth=1;size=1.2;indent=0;" vertex="1" parent="1">
          <mxGeometry x="-190" y="340" width="20" height="20" as="geometry" />
        </mxCell>
        <mxCell id="pXgBq8F15Pb4AACvGtiO-24" value="«component»&lt;br&gt;«container (C4)»&lt;div&gt;&lt;b&gt;3D Visualization&lt;/b&gt;&lt;/div&gt;" style="rounded=0;whiteSpace=wrap;html=1;" vertex="1" parent="1">
          <mxGeometry x="-250" y="745" width="180" height="105" as="geometry" />
        </mxCell>
        <mxCell id="pXgBq8F15Pb4AACvGtiO-25" value="«component»&lt;br&gt;«container (C4)»&lt;div&gt;&lt;b&gt;GDPR&lt;/b&gt;&lt;/div&gt;" style="rounded=0;whiteSpace=wrap;html=1;" vertex="1" parent="1">
          <mxGeometry x="70" y="495" width="180" height="105" as="geometry" />
        </mxCell>
        <mxCell id="pXgBq8F15Pb4AACvGtiO-26" value="" style="rounded=0;whiteSpace=wrap;html=1;" vertex="1" parent="1">
          <mxGeometry x="60" y="545" width="20" height="20" as="geometry" />
        </mxCell>
        <mxCell id="pXgBq8F15Pb4AACvGtiO-27" value="" style="rounded=0;orthogonalLoop=1;jettySize=auto;html=1;endArrow=halfCircle;endFill=0;endSize=6;strokeWidth=1;sketch=0;fontSize=12;curved=1;exitX=0;exitY=0.5;exitDx=0;exitDy=0;" edge="1" parent="1" source="pXgBq8F15Pb4AACvGtiO-26">
          <mxGeometry relative="1" as="geometry">
            <mxPoint x="70" y="425" as="sourcePoint" />
            <mxPoint y="555" as="targetPoint" />
          </mxGeometry>
        </mxCell>
        <mxCell id="pXgBq8F15Pb4AACvGtiO-28" value="" style="rounded=0;whiteSpace=wrap;html=1;" vertex="1" parent="1">
          <mxGeometry x="-230" y="735" width="20" height="20" as="geometry" />
        </mxCell>
        <mxCell id="pXgBq8F15Pb4AACvGtiO-29" value="" style="rounded=0;whiteSpace=wrap;html=1;" vertex="1" parent="1">
          <mxGeometry x="-230" y="430" width="20" height="20" as="geometry" />
        </mxCell>
        <mxCell id="pXgBq8F15Pb4AACvGtiO-30" value="" style="rounded=0;orthogonalLoop=1;jettySize=auto;html=1;endArrow=halfCircle;endFill=0;endSize=6;strokeWidth=1;sketch=0;exitX=0.5;exitY=1;exitDx=0;exitDy=0;" edge="1" parent="1" source="pXgBq8F15Pb4AACvGtiO-29">
          <mxGeometry relative="1" as="geometry">
            <mxPoint x="-300" y="530" as="sourcePoint" />
            <mxPoint x="-270" y="550" as="targetPoint" />
            <Array as="points">
              <mxPoint x="-270" y="490" />
            </Array>
          </mxGeometry>
        </mxCell>
        <mxCell id="pXgBq8F15Pb4AACvGtiO-31" value="" style="rounded=0;orthogonalLoop=1;jettySize=auto;html=1;endArrow=oval;endFill=0;sketch=0;sourcePerimeterSpacing=0;targetPerimeterSpacing=0;endSize=10;exitX=0.5;exitY=0;exitDx=0;exitDy=0;" edge="1" parent="1" source="pXgBq8F15Pb4AACvGtiO-28">
          <mxGeometry relative="1" as="geometry">
            <mxPoint x="-160" y="530" as="sourcePoint" />
            <mxPoint x="-270" y="550" as="targetPoint" />
            <Array as="points">
              <mxPoint x="-270" y="690" />
            </Array>
          </mxGeometry>
        </mxCell>
        <mxCell id="pXgBq8F15Pb4AACvGtiO-32" value="&lt;b&gt;3D Visualization API&lt;/b&gt;" style="edgeLabel;html=1;align=center;verticalAlign=middle;resizable=0;points=[];" vertex="1" connectable="0" parent="pXgBq8F15Pb4AACvGtiO-31">
          <mxGeometry x="0.7483" relative="1" as="geometry">
            <mxPoint x="-60" y="-35" as="offset" />
          </mxGeometry>
        </mxCell>
        <mxCell id="pXgBq8F15Pb4AACvGtiO-33" value="«component»&lt;br&gt;«container (C4)»&lt;div&gt;&lt;b&gt;BCP&lt;/b&gt;&lt;/div&gt;" style="rounded=0;whiteSpace=wrap;html=1;" vertex="1" parent="1">
          <mxGeometry x="70" y="640" width="180" height="105" as="geometry" />
        </mxCell>
        <mxCell id="pXgBq8F15Pb4AACvGtiO-34" value="" style="rounded=0;whiteSpace=wrap;html=1;" vertex="1" parent="1">
          <mxGeometry x="-80" y="755" width="20" height="20" as="geometry" />
        </mxCell>
        <mxCell id="pXgBq8F15Pb4AACvGtiO-35" value="«component»&lt;div&gt;«container (C4)»&lt;br&gt;&lt;b&gt;Backend&lt;/b&gt;&lt;/div&gt;" style="html=1;dropTarget=0;whiteSpace=wrap;" vertex="1" parent="1">
          <mxGeometry x="-245" y="480" width="170" height="80" as="geometry" />
        </mxCell>
        <mxCell id="pXgBq8F15Pb4AACvGtiO-36" value="" style="shape=module;jettyWidth=8;jettyHeight=4;" vertex="1" parent="pXgBq8F15Pb4AACvGtiO-35">
          <mxGeometry x="1" width="20" height="20" relative="1" as="geometry">
            <mxPoint x="-27" y="7" as="offset" />
          </mxGeometry>
        </mxCell>
        <mxCell id="pXgBq8F15Pb4AACvGtiO-37" value="" style="rounded=0;whiteSpace=wrap;html=1;" vertex="1" parent="1">
          <mxGeometry x="-90" y="520" width="20" height="20" as="geometry" />
        </mxCell>
        <mxCell id="pXgBq8F15Pb4AACvGtiO-38" value="" style="rounded=0;whiteSpace=wrap;html=1;" vertex="1" parent="1">
          <mxGeometry x="-80" y="410" width="20" height="20" as="geometry" />
        </mxCell>
        <mxCell id="pXgBq8F15Pb4AACvGtiO-39" value="" style="rounded=0;orthogonalLoop=1;jettySize=auto;html=1;endArrow=halfCircle;endFill=0;endSize=6;strokeWidth=1;sketch=0;exitX=1;exitY=0.5;exitDx=0;exitDy=0;" edge="1" parent="1" source="pXgBq8F15Pb4AACvGtiO-38">
          <mxGeometry relative="1" as="geometry">
            <mxPoint x="-210" y="460" as="sourcePoint" />
            <mxPoint x="-10" y="550" as="targetPoint" />
            <Array as="points">
              <mxPoint x="-10" y="420" />
              <mxPoint x="-10" y="460" />
            </Array>
          </mxGeometry>
        </mxCell>
        <mxCell id="pXgBq8F15Pb4AACvGtiO-40" value="«component»&lt;div&gt;«container (C4)»&lt;br&gt;&lt;b&gt;Database&lt;/b&gt;&lt;/div&gt;" style="html=1;dropTarget=0;whiteSpace=wrap;" vertex="1" parent="1">
          <mxGeometry x="-200" y="640" width="130" height="65" as="geometry" />
        </mxCell>
        <mxCell id="pXgBq8F15Pb4AACvGtiO-41" value="" style="shape=module;jettyWidth=8;jettyHeight=4;" vertex="1" parent="pXgBq8F15Pb4AACvGtiO-40">
          <mxGeometry x="1" width="20" height="20" relative="1" as="geometry">
            <mxPoint x="-27" y="7" as="offset" />
          </mxGeometry>
        </mxCell>
        <mxCell id="pXgBq8F15Pb4AACvGtiO-42" value="" style="rounded=0;whiteSpace=wrap;html=1;" vertex="1" parent="1">
          <mxGeometry x="-136" y="550" width="20" height="20" as="geometry" />
        </mxCell>
        <mxCell id="pXgBq8F15Pb4AACvGtiO-43" value="" style="rounded=0;whiteSpace=wrap;html=1;" vertex="1" parent="1">
          <mxGeometry x="-136" y="630" width="20" height="20" as="geometry" />
        </mxCell>
        <mxCell id="pXgBq8F15Pb4AACvGtiO-44" value="" style="rounded=0;orthogonalLoop=1;jettySize=auto;html=1;endArrow=halfCircle;endFill=0;endSize=6;strokeWidth=1;sketch=0;exitX=0.5;exitY=1;exitDx=0;exitDy=0;" edge="1" parent="1" source="pXgBq8F15Pb4AACvGtiO-42">
          <mxGeometry relative="1" as="geometry">
            <mxPoint x="-50" y="400" as="sourcePoint" />
            <mxPoint x="-126" y="600" as="targetPoint" />
          </mxGeometry>
        </mxCell>
        <mxCell id="pXgBq8F15Pb4AACvGtiO-45" value="" style="rounded=0;orthogonalLoop=1;jettySize=auto;html=1;endArrow=oval;endFill=0;sketch=0;sourcePerimeterSpacing=0;targetPerimeterSpacing=0;endSize=10;exitX=0.5;exitY=0;exitDx=0;exitDy=0;" edge="1" parent="1" source="pXgBq8F15Pb4AACvGtiO-43">
          <mxGeometry relative="1" as="geometry">
            <mxPoint x="70" y="400" as="sourcePoint" />
            <mxPoint x="-126" y="600" as="targetPoint" />
          </mxGeometry>
        </mxCell>
        <mxCell id="pXgBq8F15Pb4AACvGtiO-46" value="&lt;b&gt;Database API&lt;/b&gt;" style="edgeLabel;html=1;align=center;verticalAlign=middle;resizable=0;points=[];" vertex="1" connectable="0" parent="pXgBq8F15Pb4AACvGtiO-45">
          <mxGeometry x="0.7483" relative="1" as="geometry">
            <mxPoint x="-54" y="-4" as="offset" />
          </mxGeometry>
        </mxCell>
        <mxCell id="pXgBq8F15Pb4AACvGtiO-47" value="«component»&lt;div&gt;«container (C4)»&lt;br&gt;&lt;b&gt;ExpressBackend&lt;/b&gt;&lt;/div&gt;" style="html=1;dropTarget=0;whiteSpace=wrap;" vertex="1" parent="1">
          <mxGeometry x="-570" y="480" width="170" height="80" as="geometry" />
        </mxCell>
        <mxCell id="pXgBq8F15Pb4AACvGtiO-48" value="" style="shape=module;jettyWidth=8;jettyHeight=4;" vertex="1" parent="pXgBq8F15Pb4AACvGtiO-47">
          <mxGeometry x="1" width="20" height="20" relative="1" as="geometry">
            <mxPoint x="-27" y="7" as="offset" />
          </mxGeometry>
        </mxCell>
        <mxCell id="pXgBq8F15Pb4AACvGtiO-49" value="«component»&lt;div&gt;«container (C4)»&lt;br&gt;&lt;b&gt;MongoDB&lt;/b&gt;&lt;/div&gt;" style="html=1;dropTarget=0;whiteSpace=wrap;" vertex="1" parent="1">
          <mxGeometry x="-545" y="640" width="130" height="65" as="geometry" />
        </mxCell>
        <mxCell id="pXgBq8F15Pb4AACvGtiO-50" value="" style="shape=module;jettyWidth=8;jettyHeight=4;" vertex="1" parent="pXgBq8F15Pb4AACvGtiO-49">
          <mxGeometry x="1" width="20" height="20" relative="1" as="geometry">
            <mxPoint x="-27" y="7" as="offset" />
          </mxGeometry>
        </mxCell>
        <mxCell id="pXgBq8F15Pb4AACvGtiO-51" value="" style="rounded=0;whiteSpace=wrap;html=1;" vertex="1" parent="1">
          <mxGeometry x="-490" y="550" width="20" height="20" as="geometry" />
        </mxCell>
        <mxCell id="pXgBq8F15Pb4AACvGtiO-52" value="" style="rounded=0;whiteSpace=wrap;html=1;" vertex="1" parent="1">
          <mxGeometry x="-490" y="630" width="20" height="20" as="geometry" />
        </mxCell>
        <mxCell id="pXgBq8F15Pb4AACvGtiO-53" value="" style="rounded=0;orthogonalLoop=1;jettySize=auto;html=1;endArrow=halfCircle;endFill=0;endSize=6;strokeWidth=1;sketch=0;exitX=0.5;exitY=1;exitDx=0;exitDy=0;" edge="1" parent="1" source="pXgBq8F15Pb4AACvGtiO-51">
          <mxGeometry relative="1" as="geometry">
            <mxPoint x="-404" y="400" as="sourcePoint" />
            <mxPoint x="-480" y="600" as="targetPoint" />
          </mxGeometry>
        </mxCell>
        <mxCell id="pXgBq8F15Pb4AACvGtiO-54" value="" style="rounded=0;orthogonalLoop=1;jettySize=auto;html=1;endArrow=oval;endFill=0;sketch=0;sourcePerimeterSpacing=0;targetPerimeterSpacing=0;endSize=10;exitX=0.5;exitY=0;exitDx=0;exitDy=0;" edge="1" parent="1" source="pXgBq8F15Pb4AACvGtiO-52">
          <mxGeometry relative="1" as="geometry">
            <mxPoint x="-284" y="400" as="sourcePoint" />
            <mxPoint x="-480" y="600" as="targetPoint" />
          </mxGeometry>
        </mxCell>
        <mxCell id="pXgBq8F15Pb4AACvGtiO-55" value="&lt;b&gt;Database API&lt;/b&gt;" style="edgeLabel;html=1;align=center;verticalAlign=middle;resizable=0;points=[];" vertex="1" connectable="0" parent="pXgBq8F15Pb4AACvGtiO-54">
          <mxGeometry x="0.7483" relative="1" as="geometry">
            <mxPoint x="-54" y="-4" as="offset" />
          </mxGeometry>
        </mxCell>
        <mxCell id="pXgBq8F15Pb4AACvGtiO-56" value="" style="rounded=0;orthogonalLoop=1;jettySize=auto;html=1;endArrow=oval;endFill=0;sketch=0;sourcePerimeterSpacing=0;targetPerimeterSpacing=0;endSize=10;exitX=0.5;exitY=0;exitDx=0;exitDy=0;entryX=0.291;entryY=0.254;entryDx=0;entryDy=0;entryPerimeter=0;" edge="1" parent="1" source="pXgBq8F15Pb4AACvGtiO-58" target="pXgBq8F15Pb4AACvGtiO-1">
          <mxGeometry relative="1" as="geometry">
            <mxPoint x="-335" y="504.8299999999999" as="sourcePoint" />
            <mxPoint x="-415" y="505" as="targetPoint" />
            <Array as="points">
              <mxPoint x="-485" y="430" />
            </Array>
          </mxGeometry>
        </mxCell>
        <mxCell id="pXgBq8F15Pb4AACvGtiO-57" value="&lt;b&gt;ExpressBackend&lt;/b&gt;&lt;div&gt;&lt;b&gt;API&lt;/b&gt;&lt;/div&gt;" style="edgeLabel;html=1;align=center;verticalAlign=middle;resizable=0;points=[];" vertex="1" connectable="0" parent="pXgBq8F15Pb4AACvGtiO-56">
          <mxGeometry x="0.7483" relative="1" as="geometry">
            <mxPoint x="-35" y="-20" as="offset" />
          </mxGeometry>
        </mxCell>
        <mxCell id="pXgBq8F15Pb4AACvGtiO-58" value="" style="rounded=0;whiteSpace=wrap;html=1;" vertex="1" parent="1">
          <mxGeometry x="-495" y="470" width="20" height="20" as="geometry" />
        </mxCell>
        <mxCell id="pXgBq8F15Pb4AACvGtiO-59" value="" style="rounded=0;orthogonalLoop=1;jettySize=auto;html=1;endArrow=halfCircle;endFill=0;endSize=6;strokeWidth=1;sketch=0;exitX=0.5;exitY=1;exitDx=0;exitDy=0;" edge="1" parent="1" source="pXgBq8F15Pb4AACvGtiO-51">
          <mxGeometry relative="1" as="geometry">
            <mxPoint x="-470" y="580" as="sourcePoint" />
            <mxPoint x="-20" y="560" as="targetPoint" />
            <Array as="points">
              <mxPoint x="-480" y="580" />
              <mxPoint x="-40" y="580" />
            </Array>
          </mxGeometry>
        </mxCell>
        <mxCell id="pXgBq8F15Pb4AACvGtiO-60" value="" style="rounded=0;orthogonalLoop=1;jettySize=auto;html=1;endArrow=halfCircle;endFill=0;endSize=6;strokeWidth=1;sketch=0;exitX=1;exitY=0.5;exitDx=0;exitDy=0;" edge="1" parent="1" source="pXgBq8F15Pb4AACvGtiO-38">
          <mxGeometry relative="1" as="geometry">
            <mxPoint x="-60" y="440" as="sourcePoint" />
            <mxPoint x="-340" y="430" as="targetPoint" />
            <Array as="points">
              <mxPoint x="-10" y="420" />
              <mxPoint x="-10" y="460" />
              <mxPoint x="-320" y="460" />
            </Array>
          </mxGeometry>
        </mxCell>
        <mxCell id="pXgBq8F15Pb4AACvGtiO-61" value="" style="rounded=0;whiteSpace=wrap;html=1;" vertex="1" parent="1">
          <mxGeometry x="-250" y="495" width="20" height="20" as="geometry" />
        </mxCell>
        <mxCell id="pXgBq8F15Pb4AACvGtiO-62" value="" style="rounded=0;orthogonalLoop=1;jettySize=auto;html=1;endArrow=halfCircle;endFill=0;endSize=6;strokeWidth=1;sketch=0;exitX=0;exitY=0.5;exitDx=0;exitDy=0;" edge="1" parent="1" source="pXgBq8F15Pb4AACvGtiO-61">
          <mxGeometry relative="1" as="geometry">
            <mxPoint x="-320" y="495" as="sourcePoint" />
            <mxPoint x="-340" y="440" as="targetPoint" />
            <Array as="points">
              <mxPoint x="-340" y="505" />
            </Array>
          </mxGeometry>
        </mxCell>
        <mxCell id="pXgBq8F15Pb4AACvGtiO-63" value="&amp;lt;&amp;lt;component&amp;gt;&amp;gt;&lt;div&gt;&amp;lt;&amp;lt;C4 System&amp;gt;&amp;gt;&lt;br&gt;&lt;b&gt;Hospital de Paranhos&lt;/b&gt;&lt;/div&gt;&lt;div&gt;&lt;b&gt;&lt;br&gt;&lt;/b&gt;&lt;/div&gt;&lt;div&gt;&lt;b&gt;&lt;br&gt;&lt;/b&gt;&lt;/div&gt;&lt;div&gt;&lt;b&gt;&lt;br&gt;&lt;/b&gt;&lt;/div&gt;&lt;div&gt;&lt;b&gt;&lt;br&gt;&lt;/b&gt;&lt;/div&gt;&lt;div&gt;&lt;b&gt;&lt;br&gt;&lt;/b&gt;&lt;/div&gt;&lt;div&gt;&lt;b&gt;&lt;br&gt;&lt;/b&gt;&lt;/div&gt;&lt;div&gt;&lt;b&gt;&lt;br&gt;&lt;/b&gt;&lt;/div&gt;&lt;div&gt;&lt;b&gt;&lt;br&gt;&lt;/b&gt;&lt;/div&gt;&lt;div&gt;&lt;b&gt;&lt;br&gt;&lt;/b&gt;&lt;/div&gt;&lt;div&gt;&lt;b&gt;&lt;br&gt;&lt;/b&gt;&lt;/div&gt;&lt;div&gt;&lt;b&gt;&lt;br&gt;&lt;/b&gt;&lt;/div&gt;&lt;div&gt;&lt;b&gt;&lt;br&gt;&lt;/b&gt;&lt;/div&gt;&lt;div&gt;&lt;b&gt;&lt;br&gt;&lt;/b&gt;&lt;/div&gt;&lt;div&gt;&lt;b&gt;&lt;br&gt;&lt;/b&gt;&lt;/div&gt;&lt;div&gt;&lt;b&gt;&lt;br&gt;&lt;/b&gt;&lt;/div&gt;&lt;div&gt;&lt;b&gt;&lt;br&gt;&lt;/b&gt;&lt;/div&gt;&lt;div&gt;&lt;b&gt;&lt;br&gt;&lt;/b&gt;&lt;/div&gt;&lt;div&gt;&lt;b&gt;&lt;br&gt;&lt;/b&gt;&lt;/div&gt;&lt;div&gt;&lt;b&gt;&lt;br&gt;&lt;/b&gt;&lt;/div&gt;&lt;div&gt;&lt;b&gt;&lt;br&gt;&lt;/b&gt;&lt;/div&gt;&lt;div&gt;&lt;b&gt;&lt;br&gt;&lt;/b&gt;&lt;/div&gt;&lt;div&gt;&lt;b&gt;&lt;br&gt;&lt;/b&gt;&lt;/div&gt;&lt;div&gt;&lt;b&gt;&lt;br&gt;&lt;/b&gt;&lt;/div&gt;&lt;div&gt;&lt;b&gt;&lt;br&gt;&lt;/b&gt;&lt;/div&gt;&lt;div&gt;&lt;b&gt;&lt;br&gt;&lt;/b&gt;&lt;/div&gt;&lt;div&gt;&lt;b&gt;&lt;br&gt;&lt;/b&gt;&lt;/div&gt;&lt;div&gt;&lt;b&gt;&lt;br&gt;&lt;/b&gt;&lt;/div&gt;&lt;div&gt;&lt;b&gt;&lt;br&gt;&lt;/b&gt;&lt;/div&gt;&lt;div&gt;&lt;b&gt;&lt;br&gt;&lt;/b&gt;&lt;/div&gt;&lt;div&gt;&lt;b&gt;&lt;br&gt;&lt;/b&gt;&lt;/div&gt;&lt;div&gt;&lt;br&gt;&lt;/div&gt;&lt;div&gt;&lt;br&gt;&lt;/div&gt;&lt;div&gt;&lt;br&gt;&lt;/div&gt;" style="html=1;dropTarget=0;whiteSpace=wrap;" vertex="1" parent="1">
          <mxGeometry x="390" y="170" width="870" height="530" as="geometry" />
        </mxCell>
        <mxCell id="pXgBq8F15Pb4AACvGtiO-64" value="" style="shape=module;jettyWidth=8;jettyHeight=4;" vertex="1" parent="pXgBq8F15Pb4AACvGtiO-63">
          <mxGeometry x="1" width="20" height="20" relative="1" as="geometry">
            <mxPoint x="-27" y="7" as="offset" />
          </mxGeometry>
        </mxCell>
        <mxCell id="pXgBq8F15Pb4AACvGtiO-65" value="" style="verticalLabelPosition=bottom;verticalAlign=top;html=1;shape=mxgraph.basic.rect;fillColor2=none;strokeWidth=1;size=20;indent=5;" vertex="1" parent="1">
          <mxGeometry x="750" y="160" width="20" height="20" as="geometry" />
        </mxCell>
        <mxCell id="pXgBq8F15Pb4AACvGtiO-66" value="" style="endArrow=none;html=1;rounded=0;exitX=0.488;exitY=0.015;exitDx=0;exitDy=0;exitPerimeter=0;entryX=0.488;entryY=1.026;entryDx=0;entryDy=0;entryPerimeter=0;" edge="1" parent="1" source="pXgBq8F15Pb4AACvGtiO-74" target="pXgBq8F15Pb4AACvGtiO-65">
          <mxGeometry width="50" height="50" relative="1" as="geometry">
            <mxPoint x="820" y="260" as="sourcePoint" />
            <mxPoint x="870" y="210" as="targetPoint" />
          </mxGeometry>
        </mxCell>
        <mxCell id="pXgBq8F15Pb4AACvGtiO-67" value="" style="ellipse;whiteSpace=wrap;html=1;align=center;aspect=fixed;fillColor=none;strokeColor=none;resizable=0;perimeter=centerPerimeter;rotatable=0;allowArrows=0;points=[];outlineConnect=1;" vertex="1" parent="1">
          <mxGeometry x="780" y="280" width="10" height="10" as="geometry" />
        </mxCell>
        <mxCell id="pXgBq8F15Pb4AACvGtiO-68" value="" style="ellipse;whiteSpace=wrap;html=1;aspect=fixed;" vertex="1" parent="1">
          <mxGeometry x="745" y="60" width="30" height="30" as="geometry" />
        </mxCell>
        <mxCell id="pXgBq8F15Pb4AACvGtiO-69" value="" style="endArrow=none;html=1;rounded=0;entryX=0.5;entryY=1;entryDx=0;entryDy=0;exitX=0.55;exitY=0.011;exitDx=0;exitDy=0;exitPerimeter=0;" edge="1" parent="1" source="pXgBq8F15Pb4AACvGtiO-65" target="pXgBq8F15Pb4AACvGtiO-68">
          <mxGeometry width="50" height="50" relative="1" as="geometry">
            <mxPoint x="730" y="170" as="sourcePoint" />
            <mxPoint x="780" y="120" as="targetPoint" />
          </mxGeometry>
        </mxCell>
        <mxCell id="pXgBq8F15Pb4AACvGtiO-70" value="UI" style="edgeLabel;html=1;align=center;verticalAlign=middle;resizable=0;points=[];" vertex="1" connectable="0" parent="pXgBq8F15Pb4AACvGtiO-69">
          <mxGeometry x="0.7303" y="1" relative="1" as="geometry">
            <mxPoint x="-9" y="4" as="offset" />
          </mxGeometry>
        </mxCell>
        <mxCell id="pXgBq8F15Pb4AACvGtiO-71" value="«component»&lt;div&gt;«container (C4)»&lt;br&gt;&lt;b&gt;Planeamento&lt;/b&gt;&lt;/div&gt;" style="html=1;dropTarget=0;whiteSpace=wrap;" vertex="1" parent="1">
          <mxGeometry x="1010" y="230" width="180" height="90" as="geometry" />
        </mxCell>
        <mxCell id="pXgBq8F15Pb4AACvGtiO-72" value="" style="shape=module;jettyWidth=8;jettyHeight=4;" vertex="1" parent="pXgBq8F15Pb4AACvGtiO-71">
          <mxGeometry x="1" width="20" height="20" relative="1" as="geometry">
            <mxPoint x="-27" y="7" as="offset" />
          </mxGeometry>
        </mxCell>
        <mxCell id="pXgBq8F15Pb4AACvGtiO-73" value="«component»&lt;div&gt;«container (C4)»&lt;br&gt;&lt;b&gt;HospitalApp&lt;/b&gt;&lt;/div&gt;" style="html=1;dropTarget=0;whiteSpace=wrap;" vertex="1" parent="1">
          <mxGeometry x="690" y="230" width="180" height="90" as="geometry" />
        </mxCell>
        <mxCell id="pXgBq8F15Pb4AACvGtiO-74" value="" style="verticalLabelPosition=bottom;verticalAlign=top;html=1;shape=mxgraph.basic.rect;fillColor2=none;strokeWidth=1;size=20;indent=5;" vertex="1" parent="1">
          <mxGeometry x="750" y="220" width="20" height="20" as="geometry" />
        </mxCell>
        <mxCell id="pXgBq8F15Pb4AACvGtiO-75" value="«component»&lt;br&gt;«container (C4)»&lt;div&gt;&lt;b&gt;Backend&lt;/b&gt;&lt;/div&gt;" style="rounded=0;whiteSpace=wrap;html=1;" vertex="1" parent="1">
          <mxGeometry x="690" y="440" width="180" height="105" as="geometry" />
        </mxCell>
        <mxCell id="pXgBq8F15Pb4AACvGtiO-76" value="«component»&lt;br&gt;«container (C4)»&lt;div&gt;&lt;b&gt;BCP&lt;/b&gt;&lt;/div&gt;" style="rounded=0;whiteSpace=wrap;html=1;" vertex="1" parent="1">
          <mxGeometry x="1020" y="460" width="180" height="105" as="geometry" />
        </mxCell>
        <mxCell id="pXgBq8F15Pb4AACvGtiO-77" value="" style="rounded=0;orthogonalLoop=1;jettySize=auto;html=1;endArrow=halfCircle;endFill=0;endSize=6;strokeWidth=1;sketch=0;exitX=0.5;exitY=1;exitDx=0;exitDy=0;" edge="1" parent="1" source="pXgBq8F15Pb4AACvGtiO-82">
          <mxGeometry relative="1" as="geometry">
            <mxPoint x="770" y="377.15999999999997" as="sourcePoint" />
            <mxPoint x="760" y="390" as="targetPoint" />
          </mxGeometry>
        </mxCell>
        <mxCell id="pXgBq8F15Pb4AACvGtiO-78" value="" style="rounded=0;orthogonalLoop=1;jettySize=auto;html=1;endArrow=oval;endFill=0;sketch=0;sourcePerimeterSpacing=0;targetPerimeterSpacing=0;endSize=10;exitX=0.5;exitY=0;exitDx=0;exitDy=0;" edge="1" parent="1" source="pXgBq8F15Pb4AACvGtiO-81">
          <mxGeometry relative="1" as="geometry">
            <mxPoint x="789.9999999999999" y="441.53999999999996" as="sourcePoint" />
            <mxPoint x="760" y="390" as="targetPoint" />
          </mxGeometry>
        </mxCell>
        <mxCell id="pXgBq8F15Pb4AACvGtiO-79" value="&lt;b&gt;Backend API&lt;/b&gt;" style="edgeLabel;html=1;align=center;verticalAlign=middle;resizable=0;points=[];" vertex="1" connectable="0" parent="pXgBq8F15Pb4AACvGtiO-78">
          <mxGeometry x="0.8167" y="3" relative="1" as="geometry">
            <mxPoint x="-37" y="14" as="offset" />
          </mxGeometry>
        </mxCell>
        <mxCell id="pXgBq8F15Pb4AACvGtiO-80" value="" style="ellipse;whiteSpace=wrap;html=1;align=center;aspect=fixed;fillColor=none;strokeColor=none;resizable=0;perimeter=centerPerimeter;rotatable=0;allowArrows=0;points=[];outlineConnect=1;" vertex="1" parent="1">
          <mxGeometry x="845" y="310" width="10" height="10" as="geometry" />
        </mxCell>
        <mxCell id="pXgBq8F15Pb4AACvGtiO-81" value="" style="rounded=0;whiteSpace=wrap;html=1;" vertex="1" parent="1">
          <mxGeometry x="750" y="430" width="20" height="20" as="geometry" />
        </mxCell>
        <mxCell id="pXgBq8F15Pb4AACvGtiO-82" value="" style="rounded=0;whiteSpace=wrap;html=1;" vertex="1" parent="1">
          <mxGeometry x="750" y="310" width="20" height="20" as="geometry" />
        </mxCell>
        <mxCell id="pXgBq8F15Pb4AACvGtiO-83" value="" style="rounded=0;whiteSpace=wrap;html=1;" vertex="1" parent="1">
          <mxGeometry x="860" y="265" width="20" height="20" as="geometry" />
        </mxCell>
        <mxCell id="pXgBq8F15Pb4AACvGtiO-84" value="" style="rounded=0;whiteSpace=wrap;html=1;" vertex="1" parent="1">
          <mxGeometry x="1000" y="265" width="20" height="20" as="geometry" />
        </mxCell>
        <mxCell id="pXgBq8F15Pb4AACvGtiO-85" value="" style="rounded=0;orthogonalLoop=1;jettySize=auto;html=1;endArrow=halfCircle;endFill=0;endSize=6;strokeWidth=1;sketch=0;exitX=1;exitY=0.5;exitDx=0;exitDy=0;" edge="1" parent="1" source="pXgBq8F15Pb4AACvGtiO-83">
          <mxGeometry relative="1" as="geometry">
            <mxPoint x="880" y="270" as="sourcePoint" />
            <mxPoint x="940" y="275" as="targetPoint" />
          </mxGeometry>
        </mxCell>
        <mxCell id="pXgBq8F15Pb4AACvGtiO-86" value="" style="rounded=0;orthogonalLoop=1;jettySize=auto;html=1;endArrow=oval;endFill=0;sketch=0;sourcePerimeterSpacing=0;targetPerimeterSpacing=0;endSize=10;exitX=0;exitY=0.5;exitDx=0;exitDy=0;" edge="1" parent="1" source="pXgBq8F15Pb4AACvGtiO-84">
          <mxGeometry relative="1" as="geometry">
            <mxPoint x="920" y="350" as="sourcePoint" />
            <mxPoint x="940" y="275" as="targetPoint" />
          </mxGeometry>
        </mxCell>
        <mxCell id="pXgBq8F15Pb4AACvGtiO-87" value="&lt;b&gt;Planning API&lt;/b&gt;" style="edgeLabel;html=1;align=center;verticalAlign=middle;resizable=0;points=[];" vertex="1" connectable="0" parent="pXgBq8F15Pb4AACvGtiO-86">
          <mxGeometry x="0.8167" y="3" relative="1" as="geometry">
            <mxPoint x="-6" y="12" as="offset" />
          </mxGeometry>
        </mxCell>
        <mxCell id="pXgBq8F15Pb4AACvGtiO-88" value="«component»&lt;div&gt;«container (C4)»&lt;br&gt;&lt;b&gt;Database&lt;/b&gt;&lt;/div&gt;" style="html=1;dropTarget=0;whiteSpace=wrap;" vertex="1" parent="1">
          <mxGeometry x="845" y="580" width="130" height="65" as="geometry" />
        </mxCell>
        <mxCell id="pXgBq8F15Pb4AACvGtiO-89" value="" style="shape=module;jettyWidth=8;jettyHeight=4;" vertex="1" parent="pXgBq8F15Pb4AACvGtiO-88">
          <mxGeometry x="1" width="20" height="20" relative="1" as="geometry">
            <mxPoint x="-27" y="7" as="offset" />
          </mxGeometry>
        </mxCell>
        <mxCell id="pXgBq8F15Pb4AACvGtiO-90" value="" style="rounded=0;whiteSpace=wrap;html=1;" vertex="1" parent="1">
          <mxGeometry x="860" y="482.5" width="20" height="20" as="geometry" />
        </mxCell>
        <mxCell id="pXgBq8F15Pb4AACvGtiO-91" value="" style="rounded=0;whiteSpace=wrap;html=1;" vertex="1" parent="1">
          <mxGeometry x="910" y="570" width="20" height="20" as="geometry" />
        </mxCell>
        <mxCell id="pXgBq8F15Pb4AACvGtiO-92" value="" style="rounded=0;orthogonalLoop=1;jettySize=auto;html=1;endArrow=halfCircle;endFill=0;endSize=6;strokeWidth=1;sketch=0;exitX=1;exitY=0.5;exitDx=0;exitDy=0;" edge="1" parent="1" source="pXgBq8F15Pb4AACvGtiO-90">
          <mxGeometry relative="1" as="geometry">
            <mxPoint x="890" y="285" as="sourcePoint" />
            <mxPoint x="920" y="520" as="targetPoint" />
            <Array as="points">
              <mxPoint x="920" y="493" />
            </Array>
          </mxGeometry>
        </mxCell>
        <mxCell id="pXgBq8F15Pb4AACvGtiO-93" value="" style="rounded=0;orthogonalLoop=1;jettySize=auto;html=1;endArrow=oval;endFill=0;sketch=0;sourcePerimeterSpacing=0;targetPerimeterSpacing=0;endSize=10;exitX=0.5;exitY=0;exitDx=0;exitDy=0;" edge="1" parent="1" source="pXgBq8F15Pb4AACvGtiO-91">
          <mxGeometry relative="1" as="geometry">
            <mxPoint x="1010" y="285" as="sourcePoint" />
            <mxPoint x="920" y="520" as="targetPoint" />
          </mxGeometry>
        </mxCell>
        <mxCell id="pXgBq8F15Pb4AACvGtiO-94" value="&lt;b&gt;Database API&lt;/b&gt;" style="edgeLabel;html=1;align=center;verticalAlign=middle;resizable=0;points=[];" vertex="1" connectable="0" parent="pXgBq8F15Pb4AACvGtiO-93">
          <mxGeometry x="0.8167" y="3" relative="1" as="geometry">
            <mxPoint x="43" y="12" as="offset" />
          </mxGeometry>
        </mxCell>
        <mxCell id="pXgBq8F15Pb4AACvGtiO-95" value="«component»&lt;div&gt;«container (C4)»&lt;br&gt;&lt;b&gt;ExpressBackend&lt;/b&gt;&lt;/div&gt;" style="html=1;dropTarget=0;whiteSpace=wrap;" vertex="1" parent="1">
          <mxGeometry x="440" y="352.5" width="170" height="80" as="geometry" />
        </mxCell>
        <mxCell id="pXgBq8F15Pb4AACvGtiO-96" value="" style="shape=module;jettyWidth=8;jettyHeight=4;" vertex="1" parent="pXgBq8F15Pb4AACvGtiO-95">
          <mxGeometry x="1" width="20" height="20" relative="1" as="geometry">
            <mxPoint x="-27" y="7" as="offset" />
          </mxGeometry>
        </mxCell>
        <mxCell id="pXgBq8F15Pb4AACvGtiO-97" value="«component»&lt;div&gt;«container (C4)»&lt;br&gt;&lt;b&gt;MongoDB&lt;/b&gt;&lt;/div&gt;" style="html=1;dropTarget=0;whiteSpace=wrap;" vertex="1" parent="1">
          <mxGeometry x="465" y="512.5" width="130" height="65" as="geometry" />
        </mxCell>
        <mxCell id="pXgBq8F15Pb4AACvGtiO-98" value="" style="shape=module;jettyWidth=8;jettyHeight=4;" vertex="1" parent="pXgBq8F15Pb4AACvGtiO-97">
          <mxGeometry x="1" width="20" height="20" relative="1" as="geometry">
            <mxPoint x="-27" y="7" as="offset" />
          </mxGeometry>
        </mxCell>
        <mxCell id="pXgBq8F15Pb4AACvGtiO-99" value="" style="rounded=0;whiteSpace=wrap;html=1;" vertex="1" parent="1">
          <mxGeometry x="520" y="502.5" width="20" height="20" as="geometry" />
        </mxCell>
        <mxCell id="pXgBq8F15Pb4AACvGtiO-100" value="" style="rounded=0;orthogonalLoop=1;jettySize=auto;html=1;endArrow=halfCircle;endFill=0;endSize=6;strokeWidth=1;sketch=0;exitX=0.5;exitY=1;exitDx=0;exitDy=0;" edge="1" parent="1">
          <mxGeometry relative="1" as="geometry">
            <mxPoint x="530" y="442.5" as="sourcePoint" />
            <mxPoint x="530" y="472.5" as="targetPoint" />
          </mxGeometry>
        </mxCell>
        <mxCell id="pXgBq8F15Pb4AACvGtiO-101" value="" style="rounded=0;orthogonalLoop=1;jettySize=auto;html=1;endArrow=oval;endFill=0;sketch=0;sourcePerimeterSpacing=0;targetPerimeterSpacing=0;endSize=10;exitX=0.5;exitY=0;exitDx=0;exitDy=0;" edge="1" parent="1" source="pXgBq8F15Pb4AACvGtiO-99">
          <mxGeometry relative="1" as="geometry">
            <mxPoint x="726" y="272.5" as="sourcePoint" />
            <mxPoint x="530" y="472.5" as="targetPoint" />
          </mxGeometry>
        </mxCell>
        <mxCell id="pXgBq8F15Pb4AACvGtiO-102" value="&lt;b&gt;Database API&lt;/b&gt;" style="edgeLabel;html=1;align=center;verticalAlign=middle;resizable=0;points=[];" vertex="1" connectable="0" parent="pXgBq8F15Pb4AACvGtiO-101">
          <mxGeometry x="0.7483" relative="1" as="geometry">
            <mxPoint x="-54" y="-4" as="offset" />
          </mxGeometry>
        </mxCell>
        <mxCell id="pXgBq8F15Pb4AACvGtiO-103" value="" style="rounded=0;orthogonalLoop=1;jettySize=auto;html=1;endArrow=oval;endFill=0;sketch=0;sourcePerimeterSpacing=0;targetPerimeterSpacing=0;endSize=10;exitX=0.5;exitY=0;exitDx=0;exitDy=0;" edge="1" parent="1">
          <mxGeometry relative="1" as="geometry">
            <mxPoint x="525" y="342.5" as="sourcePoint" />
            <mxPoint x="590" y="303" as="targetPoint" />
            <Array as="points">
              <mxPoint x="525" y="302.5" />
            </Array>
          </mxGeometry>
        </mxCell>
        <mxCell id="pXgBq8F15Pb4AACvGtiO-104" value="&lt;b&gt;ExpressBackend&lt;/b&gt;&lt;div&gt;&lt;b&gt;API&lt;/b&gt;&lt;/div&gt;" style="edgeLabel;html=1;align=center;verticalAlign=middle;resizable=0;points=[];" vertex="1" connectable="0" parent="pXgBq8F15Pb4AACvGtiO-103">
          <mxGeometry x="0.7483" relative="1" as="geometry">
            <mxPoint x="-35" y="-20" as="offset" />
          </mxGeometry>
        </mxCell>
        <mxCell id="pXgBq8F15Pb4AACvGtiO-105" value="" style="rounded=0;whiteSpace=wrap;html=1;" vertex="1" parent="1">
          <mxGeometry x="520" y="430" width="20" height="20" as="geometry" />
        </mxCell>
        <mxCell id="pXgBq8F15Pb4AACvGtiO-106" value="" style="rounded=0;whiteSpace=wrap;html=1;" vertex="1" parent="1">
          <mxGeometry x="515" y="340" width="20" height="20" as="geometry" />
        </mxCell>
        <mxCell id="pXgBq8F15Pb4AACvGtiO-107" value="" style="rounded=0;orthogonalLoop=1;jettySize=auto;html=1;endArrow=halfCircle;endFill=0;endSize=6;strokeWidth=1;sketch=0;exitX=0.5;exitY=1;exitDx=0;exitDy=0;" edge="1" parent="1">
          <mxGeometry relative="1" as="geometry">
            <mxPoint x="759.5799999999999" y="330" as="sourcePoint" />
            <mxPoint x="590" y="310" as="targetPoint" />
            <Array as="points">
              <mxPoint x="760" y="350" />
              <mxPoint x="660" y="350" />
            </Array>
          </mxGeometry>
        </mxCell>
        <mxCell id="pXgBq8F15Pb4AACvGtiO-108" value="" style="rounded=0;orthogonalLoop=1;jettySize=auto;html=1;endArrow=halfCircle;endFill=0;endSize=6;strokeWidth=1;sketch=0;exitX=0.5;exitY=1;exitDx=0;exitDy=0;" edge="1" parent="1">
          <mxGeometry relative="1" as="geometry">
            <mxPoint x="529.75" y="450" as="sourcePoint" />
            <mxPoint x="750" y="390" as="targetPoint" />
            <Array as="points">
              <mxPoint x="530" y="460" />
              <mxPoint x="630" y="460" />
              <mxPoint x="630" y="390" />
            </Array>
          </mxGeometry>
        </mxCell>
        <mxCell id="pXgBq8F15Pb4AACvGtiO-109" value="«component»&lt;br&gt;«container (C4)»&lt;div&gt;&lt;b&gt;IAM&lt;/b&gt;&lt;/div&gt;" style="rounded=0;whiteSpace=wrap;html=1;" vertex="1" parent="1">
          <mxGeometry x="890" y="335" width="180" height="105" as="geometry" />
        </mxCell>
        <mxCell id="pXgBq8F15Pb4AACvGtiO-110" value="«component»&lt;div&gt;«container (C4)»&lt;br&gt;&lt;b&gt;DB&lt;/b&gt;&lt;/div&gt;" style="html=1;dropTarget=0;whiteSpace=wrap;" vertex="1" parent="1">
          <mxGeometry x="1120" y="360" width="130" height="65" as="geometry" />
        </mxCell>
        <mxCell id="pXgBq8F15Pb4AACvGtiO-111" value="" style="shape=module;jettyWidth=8;jettyHeight=4;" vertex="1" parent="pXgBq8F15Pb4AACvGtiO-110">
          <mxGeometry x="1" width="20" height="20" relative="1" as="geometry">
            <mxPoint x="-27" y="7" as="offset" />
          </mxGeometry>
        </mxCell>
        <mxCell id="pXgBq8F15Pb4AACvGtiO-112" value="" style="rounded=0;whiteSpace=wrap;html=1;" vertex="1" parent="1">
          <mxGeometry x="1110" y="382.5" width="20" height="20" as="geometry" />
        </mxCell>
        <mxCell id="pXgBq8F15Pb4AACvGtiO-113" value="" style="rounded=0;orthogonalLoop=1;jettySize=auto;html=1;endArrow=halfCircle;endFill=0;endSize=6;strokeWidth=1;sketch=0;exitX=1;exitY=0.5;exitDx=0;exitDy=0;" edge="1" parent="1" source="pXgBq8F15Pb4AACvGtiO-116">
          <mxGeometry relative="1" as="geometry">
            <mxPoint x="1080" y="372.5" as="sourcePoint" />
            <mxPoint x="1090" y="390" as="targetPoint" />
          </mxGeometry>
        </mxCell>
        <mxCell id="pXgBq8F15Pb4AACvGtiO-114" value="" style="rounded=0;orthogonalLoop=1;jettySize=auto;html=1;endArrow=oval;endFill=0;sketch=0;sourcePerimeterSpacing=0;targetPerimeterSpacing=0;endSize=10;exitX=0;exitY=0.5;exitDx=0;exitDy=0;" edge="1" parent="1" source="pXgBq8F15Pb4AACvGtiO-112">
          <mxGeometry relative="1" as="geometry">
            <mxPoint x="1105" y="393.75" as="sourcePoint" />
            <mxPoint x="1090" y="390" as="targetPoint" />
          </mxGeometry>
        </mxCell>
        <mxCell id="pXgBq8F15Pb4AACvGtiO-115" value="&lt;b&gt;Database API&lt;/b&gt;" style="edgeLabel;html=1;align=center;verticalAlign=middle;resizable=0;points=[];" vertex="1" connectable="0" parent="pXgBq8F15Pb4AACvGtiO-114">
          <mxGeometry x="0.7483" relative="1" as="geometry">
            <mxPoint x="17" y="-40" as="offset" />
          </mxGeometry>
        </mxCell>
        <mxCell id="pXgBq8F15Pb4AACvGtiO-116" value="" style="rounded=0;whiteSpace=wrap;html=1;" vertex="1" parent="1">
          <mxGeometry x="1060" y="382.5" width="20" height="20" as="geometry" />
        </mxCell>
        <mxCell id="pXgBq8F15Pb4AACvGtiO-117" value="" style="rounded=0;whiteSpace=wrap;html=1;" vertex="1" parent="1">
          <mxGeometry x="880" y="377.5" width="20" height="20" as="geometry" />
        </mxCell>
        <mxCell id="pXgBq8F15Pb4AACvGtiO-118" value="" style="rounded=0;orthogonalLoop=1;jettySize=auto;html=1;endArrow=oval;endFill=0;sketch=0;sourcePerimeterSpacing=0;targetPerimeterSpacing=0;endSize=10;exitX=0;exitY=0.5;exitDx=0;exitDy=0;" edge="1" parent="1" source="pXgBq8F15Pb4AACvGtiO-117">
          <mxGeometry relative="1" as="geometry">
            <mxPoint x="875" y="388.75" as="sourcePoint" />
            <mxPoint x="860" y="385" as="targetPoint" />
          </mxGeometry>
        </mxCell>
        <mxCell id="pXgBq8F15Pb4AACvGtiO-119" value="&lt;b&gt;IAM API&lt;/b&gt;" style="edgeLabel;html=1;align=center;verticalAlign=middle;resizable=0;points=[];" vertex="1" connectable="0" parent="pXgBq8F15Pb4AACvGtiO-118">
          <mxGeometry x="0.7483" relative="1" as="geometry">
            <mxPoint x="18" y="-25" as="offset" />
          </mxGeometry>
        </mxCell>
        <mxCell id="pXgBq8F15Pb4AACvGtiO-120" value="" style="rounded=0;orthogonalLoop=1;jettySize=auto;html=1;endArrow=halfCircle;endFill=0;endSize=6;strokeWidth=1;sketch=0;exitX=0.5;exitY=1;exitDx=0;exitDy=0;" edge="1" parent="1">
          <mxGeometry relative="1" as="geometry">
            <mxPoint x="529.75" y="450" as="sourcePoint" />
            <mxPoint x="850" y="380" as="targetPoint" />
            <Array as="points">
              <mxPoint x="530" y="460" />
              <mxPoint x="630" y="460" />
              <mxPoint x="630" y="370" />
              <mxPoint x="750" y="370" />
            </Array>
          </mxGeometry>
        </mxCell>
        <mxCell id="pXgBq8F15Pb4AACvGtiO-121" value="" style="rounded=0;orthogonalLoop=1;jettySize=auto;html=1;endArrow=halfCircle;endFill=0;endSize=6;strokeWidth=1;sketch=0;exitX=1;exitY=0.5;exitDx=0;exitDy=0;" edge="1" parent="1" source="pXgBq8F15Pb4AACvGtiO-90">
          <mxGeometry relative="1" as="geometry">
            <mxPoint x="880" y="495.5" as="sourcePoint" />
            <mxPoint x="860" y="389.37865025788835" as="targetPoint" />
            <Array as="points">
              <mxPoint x="900" y="480" />
            </Array>
          </mxGeometry>
        </mxCell>
        <mxCell id="pXgBq8F15Pb4AACvGtiO-122" value="" style="rounded=0;orthogonalLoop=1;jettySize=auto;html=1;endArrow=halfCircle;endFill=0;endSize=6;strokeWidth=1;sketch=0;exitX=1;exitY=0.5;exitDx=0;exitDy=0;" edge="1" parent="1">
          <mxGeometry relative="1" as="geometry">
            <mxPoint x="880" y="274.74" as="sourcePoint" />
            <mxPoint x="860" y="380" as="targetPoint" />
            <Array as="points">
              <mxPoint x="900" y="275" />
            </Array>
          </mxGeometry>
        </mxCell>
        <mxCell id="pXgBq8F15Pb4AACvGtiO-123" value="" style="rounded=0;orthogonalLoop=1;jettySize=auto;html=1;endArrow=halfCircle;endFill=0;endSize=6;strokeWidth=1;sketch=0;exitX=1;exitY=0.5;exitDx=0;exitDy=0;" edge="1" parent="1">
          <mxGeometry relative="1" as="geometry">
            <mxPoint x="880" y="491.80999999999995" as="sourcePoint" />
            <mxPoint x="600" y="300" as="targetPoint" />
            <Array as="points">
              <mxPoint x="900" y="478.80999999999995" />
              <mxPoint x="860" y="410" />
            </Array>
          </mxGeometry>
        </mxCell>
        <mxCell id="pXgBq8F15Pb4AACvGtiO-125" value="«manifest»" style="endArrow=open;endSize=12;dashed=1;html=1;rounded=0;entryX=0.5;entryY=1;entryDx=0;entryDy=0;exitX=0.5;exitY=1;exitDx=0;exitDy=0;" edge="1" parent="1" source="pXgBq8F15Pb4AACvGtiO-49" target="pXgBq8F15Pb4AACvGtiO-97">
          <mxGeometry x="0.0015" y="-20" width="160" relative="1" as="geometry">
            <mxPoint x="80" y="570" as="sourcePoint" />
            <mxPoint x="240" y="570" as="targetPoint" />
            <Array as="points">
              <mxPoint x="-480" y="960" />
              <mxPoint x="530" y="960" />
            </Array>
            <mxPoint as="offset" />
          </mxGeometry>
        </mxCell>
        <mxCell id="pXgBq8F15Pb4AACvGtiO-126" value="«manifest»" style="endArrow=open;endSize=12;dashed=1;html=1;rounded=0;exitX=0.25;exitY=0;exitDx=0;exitDy=0;entryX=0.25;entryY=0;entryDx=0;entryDy=0;" edge="1" parent="1" source="pXgBq8F15Pb4AACvGtiO-47" target="pXgBq8F15Pb4AACvGtiO-95">
          <mxGeometry x="-0.0054" y="10" width="160" relative="1" as="geometry">
            <mxPoint y="560" as="sourcePoint" />
            <mxPoint x="160" y="560" as="targetPoint" />
            <Array as="points">
              <mxPoint x="-527" y="130" />
              <mxPoint x="483" y="130" />
            </Array>
            <mxPoint as="offset" />
          </mxGeometry>
        </mxCell>
        <mxCell id="pXgBq8F15Pb4AACvGtiO-127" value="«manifest»" style="endArrow=open;endSize=12;dashed=1;html=1;rounded=0;exitX=0.25;exitY=0;exitDx=0;exitDy=0;" edge="1" parent="1">
          <mxGeometry x="-0.0054" y="10" width="160" relative="1" as="geometry">
            <mxPoint x="150" y="370" as="sourcePoint" />
            <mxPoint x="1160" y="230" as="targetPoint" />
            <Array as="points">
              <mxPoint x="150" y="20" />
              <mxPoint x="1160" y="20" />
            </Array>
            <mxPoint as="offset" />
          </mxGeometry>
        </mxCell>
        <mxCell id="pXgBq8F15Pb4AACvGtiO-128" value="«manifest»" style="endArrow=open;endSize=12;dashed=1;html=1;rounded=0;exitX=0.25;exitY=0;exitDx=0;exitDy=0;entryX=0.555;entryY=0.013;entryDx=0;entryDy=0;entryPerimeter=0;" edge="1" parent="1" target="pXgBq8F15Pb4AACvGtiO-73">
          <mxGeometry x="-0.0054" y="10" width="160" relative="1" as="geometry">
            <mxPoint x="-220" y="350" as="sourcePoint" />
            <mxPoint x="790" y="223" as="targetPoint" />
            <Array as="points">
              <mxPoint x="-220" />
              <mxPoint x="790" />
            </Array>
            <mxPoint as="offset" />
          </mxGeometry>
        </mxCell>
        <mxCell id="pXgBq8F15Pb4AACvGtiO-129" value="«manifest»" style="endArrow=open;endSize=12;dashed=1;html=1;rounded=0;entryX=0.75;entryY=1;entryDx=0;entryDy=0;exitX=0.5;exitY=1;exitDx=0;exitDy=0;" edge="1" parent="1" target="pXgBq8F15Pb4AACvGtiO-73">
          <mxGeometry x="0.0015" y="-20" width="160" relative="1" as="geometry">
            <mxPoint x="-170" y="847" as="sourcePoint" />
            <mxPoint x="840" y="720" as="targetPoint" />
            <Array as="points">
              <mxPoint x="-170" y="1040" />
              <mxPoint x="825" y="1040" />
            </Array>
            <mxPoint as="offset" />
          </mxGeometry>
        </mxCell>
        <mxCell id="pXgBq8F15Pb4AACvGtiO-130" value="«manifest»" style="endArrow=open;endSize=12;dashed=1;html=1;rounded=0;entryX=0.785;entryY=0.999;entryDx=0;entryDy=0;exitX=0.5;exitY=1;exitDx=0;exitDy=0;entryPerimeter=0;" edge="1" parent="1" target="pXgBq8F15Pb4AACvGtiO-76">
          <mxGeometry x="0.0015" y="-20" width="160" relative="1" as="geometry">
            <mxPoint x="150" y="747" as="sourcePoint" />
            <mxPoint x="1160" y="620" as="targetPoint" />
            <Array as="points">
              <mxPoint x="150" y="1002" />
              <mxPoint x="1160" y="1002" />
            </Array>
            <mxPoint as="offset" />
          </mxGeometry>
        </mxCell>
        <mxCell id="pXgBq8F15Pb4AACvGtiO-132" value="«manifest»" style="endArrow=open;endSize=12;dashed=1;html=1;rounded=0;entryX=0.5;entryY=1;entryDx=0;entryDy=0;exitX=1;exitY=0.5;exitDx=0;exitDy=0;" edge="1" parent="1" source="pXgBq8F15Pb4AACvGtiO-40">
          <mxGeometry x="0.0015" y="-20" width="160" relative="1" as="geometry">
            <mxPoint x="-60" y="772" as="sourcePoint" />
            <mxPoint x="950" y="645" as="targetPoint" />
            <Array as="points">
              <mxPoint x="10" y="673" />
              <mxPoint x="10" y="820" />
              <mxPoint x="950" y="820" />
            </Array>
            <mxPoint as="offset" />
          </mxGeometry>
        </mxCell>
        <mxCell id="pXgBq8F15Pb4AACvGtiO-133" value="«manifest»" style="endArrow=open;endSize=12;dashed=1;html=1;rounded=0;entryX=0.5;entryY=1;entryDx=0;entryDy=0;exitX=1;exitY=0.5;exitDx=0;exitDy=0;" edge="1" parent="1" target="pXgBq8F15Pb4AACvGtiO-75">
          <mxGeometry x="0.0015" y="-20" width="160" relative="1" as="geometry">
            <mxPoint x="-75" y="498" as="sourcePoint" />
            <mxPoint x="945" y="470" as="targetPoint" />
            <Array as="points">
              <mxPoint x="10" y="498" />
              <mxPoint x="10" y="620" />
              <mxPoint x="780" y="620" />
            </Array>
            <mxPoint as="offset" />
          </mxGeometry>
        </mxCell>
      </root>
    </mxGraphModel>
  </diagram>
</mxfile>
